<svg version="1.0" xmlns="http://www.w3.org/2000/svg"
 width="532.000000pt" height="360.000000pt" viewBox="0 0 532.000000 360.000000"
 preserveAspectRatio="xMidYMid meet">
<metadata>
Created by potrace 1.16, written by Peter Selinger 2001-2019
</metadata>
<g transform="translate(0.000000,360.000000) scale(0.100000,-0.100000)"
fill="#000000" stroke="none">
<path d="M3324 3358 c-278 -281 -299 -306 -289 -345 4 -19 121 -143 343 -365
l337 -338 -827 0 c-916 0 -955 -2 -1203 -65 -634 -160 -1166 -591 -1455 -1180
-79 -161 -138 -324 -174 -487 -30 -133 -56 -341 -56 -446 0 -68 2 -76 29 -103
32 -31 74 -38 102 -16 9 7 42 62 74 122 339 647 890 1107 1505 1259 244 59
242 59 1160 63 l845 4 -337 -338 c-261 -261 -339 -345 -344 -369 -5 -29 1 -39
67 -110 184 -196 458 -463 482 -469 14 -4 34 -4 44 -1 10 3 395 383 856 844
786 787 837 839 837 872 1 33 -41 77 -789 820 -434 432 -814 809 -844 838 -93
87 -81 93 -363 -190z"/>
</g>
</svg>