<svg version="1.0" xmlns="http://www.w3.org/2000/svg"
 width="840.000000pt" height="879.000000pt" viewBox="0 0 840.000000 879.000000"
 preserveAspectRatio="xMidYMid meet">
<metadata>
Created by potrace 1.16, written by Peter Selinger 2001-2019
</metadata>
<g transform="translate(0.000000,879.000000) scale(0.100000,-0.100000)"
fill="#000000" stroke="none">
<path d="M7829 8375 c-20 -7 -94 -46 -165 -88 -158 -91 -651 -375 -954 -550
-124 -71 -371 -214 -550 -317 -179 -103 -503 -290 -720 -415 -217 -125 -510
-294 -650 -375 -242 -140 -322 -186 -795 -458 -204 -117 -1164 -671 -1760
-1015 -181 -104 -386 -223 -455 -262 -69 -40 -186 -107 -260 -150 -501 -289
-596 -344 -920 -530 -270 -155 -337 -202 -366 -258 -57 -108 -23 -281 69 -351
18 -14 150 -73 292 -131 143 -59 330 -135 415 -170 85 -35 375 -154 644 -264
404 -166 492 -198 505 -188 8 6 169 145 356 307 188 162 456 394 596 515 140
120 315 272 389 336 74 64 227 197 340 294 393 340 457 395 735 635 154 134
340 295 414 359 74 64 174 150 221 191 48 41 147 127 220 190 73 63 172 149
220 190 47 41 113 98 146 126 32 29 212 184 398 345 570 493 681 588 685 584
2 -2 -129 -165 -290 -362 -161 -197 -349 -428 -419 -513 -454 -557 -801 -981
-1114 -1365 -198 -242 -457 -559 -576 -705 -119 -146 -348 -427 -510 -625
-161 -198 -393 -481 -514 -630 -121 -148 -260 -317 -308 -375 l-87 -105 -1
-802 c0 -780 1 -804 20 -856 59 -156 246 -230 395 -156 51 26 59 35 390 439
115 140 311 378 435 529 124 150 251 306 282 345 32 39 64 70 70 69 13 -3 124
-48 858 -348 1070 -437 1189 -484 1237 -491 84 -11 155 16 224 85 37 38 61 71
68 97 6 21 218 1281 472 2799 253 1518 512 3071 575 3450 83 496 114 703 110
738 -18 167 -212 289 -367 232z"/>
</g>
</svg>